<svg width="32" height="32" viewBox="0 0 32 32" fill="none" xmlns="http://www.w3.org/2000/svg">
<path d="M28.0813 14.7693L4.98801 5.54264C4.71735 5.43161 4.41756 5.41326 4.13538 5.49043C3.8532 5.56761 3.60449 5.73598 3.42801 5.9693C3.24661 6.20097 3.14694 6.48614 3.14453 6.78037C3.14212 7.07459 3.2371 7.36136 3.41467 7.59597L9.40134 15.596C9.48718 15.7173 9.53216 15.8629 9.52976 16.0115C9.52736 16.1601 9.47771 16.3041 9.38801 16.4226L3.34801 24.4C3.17271 24.6349 3.078 24.9202 3.078 25.2133C3.078 25.5064 3.17271 25.7917 3.34801 26.0266C3.4722 26.1922 3.63325 26.3266 3.81839 26.4192C4.00353 26.5118 4.20768 26.56 4.41467 26.56C4.58803 26.5621 4.76013 26.5304 4.92134 26.4666L28.068 17.2666C28.3182 17.1688 28.5333 16.9981 28.6854 16.7767C28.8375 16.5552 28.9196 16.2932 28.9211 16.0245C28.9225 15.7558 28.8432 15.4929 28.6935 15.2698C28.5438 15.0468 28.3305 14.8738 28.0813 14.7733V14.7693ZM4.49467 6.78263L25.908 15.3426H10.748C10.688 15.1452 10.5931 14.9601 10.468 14.796L4.49467 6.78263ZM4.41467 25.2093L10.4547 17.236C10.5887 17.0707 10.6884 16.8803 10.748 16.676H25.9213L4.41467 25.2093Z" fill="black"/>
</svg>
