<svg width="26" height="25" viewBox="0 0 26 25" fill="none" xmlns="http://www.w3.org/2000/svg">
<path fill-rule="evenodd" clip-rule="evenodd" d="M3.3107 1.05773C4.93337 -0.555605 7.60537 -0.268938 8.96404 1.54706L10.6467 3.7924C11.7534 5.26973 11.6547 7.33373 10.3414 8.63906L10.024 8.9564C9.98805 9.08961 9.98439 9.22948 10.0134 9.36439C10.0974 9.90839 10.552 11.0604 12.456 12.9537C14.36 14.8471 15.52 15.3004 16.072 15.3857C16.2111 15.4137 16.3548 15.4096 16.492 15.3737L17.036 14.8324C18.204 13.6724 19.996 13.4551 21.4414 14.2404L23.988 15.6271C26.1707 16.8111 26.7214 19.7764 24.9347 21.5537L23.04 23.4364C22.4427 24.0297 21.64 24.5244 20.6614 24.6164C18.248 24.8417 12.6254 24.5537 6.7147 18.6777C1.1987 13.1924 0.140036 8.40839 0.00536934 6.05106C-0.0612973 4.85906 0.501369 3.85106 1.2187 3.13906L3.3107 1.05773ZM7.36404 2.74573C6.68804 1.84306 5.42937 1.77106 4.72004 2.4764L2.6267 4.5564C2.1867 4.99373 1.97604 5.4764 2.0027 5.93773C2.10937 7.81106 2.9627 12.1271 8.12537 17.2604C13.5414 22.6444 18.5427 22.8057 20.476 22.6244C20.8707 22.5884 21.2627 22.3831 21.6294 22.0191L23.5227 20.1351C24.2934 19.3697 24.124 17.9751 23.0334 17.3831L20.4867 15.9977C19.7827 15.6164 18.9587 15.7417 18.4467 16.2511L17.84 16.8551L17.1334 16.1457C17.84 16.8551 17.8387 16.8564 17.8374 16.8564L17.836 16.8591L17.832 16.8631L17.8227 16.8711L17.8027 16.8897C17.7464 16.942 17.6858 16.9893 17.6214 17.0311C17.5147 17.1017 17.3734 17.1804 17.196 17.2457C16.836 17.3804 16.3587 17.4524 15.7694 17.3617C14.6134 17.1844 13.0814 16.3964 11.0454 14.3724C9.0107 12.3484 8.21604 10.8257 8.03737 9.67106C7.94537 9.08173 8.0187 8.60439 8.1547 8.2444C8.22955 8.04182 8.33672 7.8527 8.47204 7.68439L8.5147 7.63773L8.53337 7.61773L8.54137 7.60973L8.54537 7.60573L8.54804 7.60306L8.93204 7.22173C9.5027 6.65239 9.5827 5.70973 9.04537 4.99106L7.36404 2.74573Z" fill="black"/>
</svg>
