<svg width="32" height="32" viewBox="0 0 32 32" fill="none" xmlns="http://www.w3.org/2000/svg">
<path d="M6.66669 6.66669H24C25.0609 6.66669 26.0783 7.08811 26.8284 7.83826C27.5786 8.58841 28 9.60582 28 10.6667V22.6667C28 23.7276 27.5786 24.745 26.8284 25.4951C26.0783 26.2453 25.0609 26.6667 24 26.6667H6.66669C5.60582 26.6667 4.58841 26.2453 3.83826 25.4951C3.08811 24.745 2.66669 23.7276 2.66669 22.6667V10.6667C2.66669 9.60582 3.08811 8.58841 3.83826 7.83826C4.58841 7.08811 5.60582 6.66669 6.66669 6.66669ZM6.66669 8.00002C6.00002 8.00002 5.41335 8.22669 4.96002 8.62669L15.3334 15.3334L25.7067 8.62669C25.2534 8.22669 24.6667 8.00002 24 8.00002H6.66669ZM15.3334 16.9467L4.17335 9.70669C4.06669 10 4.00002 10.3334 4.00002 10.6667V22.6667C4.00002 23.3739 4.28097 24.0522 4.78107 24.5523C5.28117 25.0524 5.95944 25.3334 6.66669 25.3334H24C24.7073 25.3334 25.3855 25.0524 25.8856 24.5523C26.3857 24.0522 26.6667 23.3739 26.6667 22.6667V10.6667C26.6667 10.3334 26.6 10 26.4934 9.70669L15.3334 16.9467Z" fill="black"/>
</svg>
