<svg width="32" height="32" viewBox="0 0 32 32" fill="none" xmlns="http://www.w3.org/2000/svg">
<path d="M8.10267 22.6667L5.83067 24.9387C5.49378 25.2756 5.10444 25.3529 4.66267 25.1707C4.22089 24.9884 4 24.6573 4 24.1773V6.15467C4 5.54044 4.20578 5.028 4.61733 4.61733C5.02889 4.20667 5.54133 4.00089 6.15467 4H25.8467C26.46 4 26.9724 4.20578 27.384 4.61733C27.7956 5.02889 28.0009 5.54133 28 6.15467V20.5133C28 21.1267 27.7947 21.6391 27.384 22.0507C26.9733 22.4622 26.4609 22.6676 25.8467 22.6667H8.10267ZM7.53333 21.3333H25.8467C26.0511 21.3333 26.2391 21.248 26.4107 21.0773C26.5822 20.9067 26.6676 20.7187 26.6667 20.5133V6.15333C26.6667 5.94889 26.5813 5.76089 26.4107 5.58933C26.24 5.41778 26.052 5.33244 25.8467 5.33333H6.15333C5.94889 5.33333 5.76089 5.41867 5.58933 5.58933C5.41778 5.76 5.33244 5.948 5.33333 6.15333V23.5267L7.53333 21.3333ZM9.33333 18H17.3333C17.5236 18 17.6822 17.9364 17.8093 17.8093C17.9364 17.6822 18 17.5236 18 17.3333C18 17.1431 17.9364 16.9844 17.8093 16.8573C17.6822 16.7302 17.5236 16.6667 17.3333 16.6667H9.33333C9.144 16.6667 8.98533 16.7302 8.85733 16.8573C8.72933 16.9844 8.66578 17.1431 8.66667 17.3333C8.66756 17.5236 8.73111 17.6822 8.85733 17.8093C8.98356 17.9364 9.14222 18 9.33333 18ZM9.33333 14H22.6667C22.8569 14 23.0156 13.9364 23.1427 13.8093C23.2698 13.6822 23.3333 13.5236 23.3333 13.3333C23.3333 13.1431 23.2698 12.9844 23.1427 12.8573C23.0156 12.7302 22.8569 12.6667 22.6667 12.6667H9.33333C9.144 12.6667 8.98533 12.7302 8.85733 12.8573C8.72933 12.9844 8.66578 13.1431 8.66667 13.3333C8.66756 13.5236 8.73111 13.6822 8.85733 13.8093C8.98356 13.9364 9.14222 14 9.33333 14ZM9.33333 10H22.6667C22.8569 10 23.0156 9.93644 23.1427 9.80933C23.2698 9.68222 23.3333 9.52356 23.3333 9.33333C23.3333 9.14311 23.2698 8.98444 23.1427 8.85733C23.0156 8.73022 22.8569 8.66667 22.6667 8.66667H9.33333C9.144 8.66667 8.98533 8.73022 8.85733 8.85733C8.72933 8.98444 8.66578 9.14311 8.66667 9.33333C8.66756 9.52356 8.73111 9.68222 8.85733 9.80933C8.98356 9.93644 9.14222 10 9.33333 10Z" fill="black"/>
</svg>
